# xmcd CD database file
#
# Track frame offsets:
#	150
#	24099
#	37304
#	49276
#	60568
#	73734
#	86170
#	100892
#	115615
#	129653
#
# Disc length: 2228 seconds
#
# Revision: 0
# Processed by: cddbd v1.5.2PL0 Copyright (c) Steve Scherf et al.
# Submitted via: CDex 1.51
#
DISCID=8908b20a
DTITLE=The Marshall Tucker Band - Greeting from South Carolina
DYEAR=1983
DGENRE=Country
TTITLE0=Carolina Sunset
TTITLE1=Good 'ole hurtin' song
TTITLE2=If I could only have my way
TTITLE3=I may be easy but you make it hard
TTITLE4=Closer to Jesus
TTITLE5=Blood red eagle
TTITLE6=Shot down where you stand
TTITLE7=Feel a drunk comin' on
TTITLE8=Bags half packed
TTITLE9=Rollin' river
EXTD=YEAR: 1983
EXTT0=
EXTT1=
EXTT2=
EXTT3=
EXTT4=
EXTT5=
EXTT6=
EXTT7=
EXTT8=
EXTT9=
PLAYORDER=
